<svg id="Capa_1" data-name="Capa 1" xmlns="http://www.w3.org/2000/svg" viewBox="0 0 188.34 188.34"><defs><style>.cls-1{fill:#9993C0;}</style></defs><path class="cls-1" d="M186.69,92.29c-.79-.92-13.46-15.28-27.51-25.05,3-16.84,1.83-35.95,1.75-37.16l-.17-2.5-2.5-.17c-1.21-.08-20.32-1.28-37.16,1.75-9.78-14-24.13-26.71-25-27.51L94.17,0,92.28,1.65c-.91.8-15.27,13.46-25,27.51-16.84-3-35.95-1.83-37.16-1.75l-2.5.17-.17,2.5c-.08,1.21-1.28,20.32,1.74,37.16C15.11,77,2.44,91.37,1.64,92.29L0,94.17l1.64,1.89c.8.91,13.47,15.27,27.51,25-3,16.85-1.82,36-1.74,37.16l.17,2.5,2.5.17c.55,0,4.86.31,11,.31a154.09,154.09,0,0,0,26.19-2c9.77,14,24.12,26.69,25,27.48l1.89,1.65,1.88-1.65c.91-.79,15.26-13.45,25-27.48a154.24,154.24,0,0,0,26.19,2c6.13,0,10.44-.27,11-.31l2.5-.17.17-2.5c.08-1.21,1.28-20.31-1.75-37.16,14-9.77,26.72-24.13,27.51-25l1.65-1.89ZM155.34,33A170.61,170.61,0,0,1,154,63.87c-5.68-3.34-11.38-5.61-16.43-5.61h-7.44V50.82c0-5-2.28-10.75-5.61-16.43A169.7,169.7,0,0,1,155.34,33Zm-31,104.52c0,4.41-2.38,9.79-5.88,15.3-6.37-1.43-11.86-3.54-15-6.66l-5.27-5.26L109,130.08h15.3Zm-9.56-13.17h-8.12l-5.73,5.73-6.76,6.76-6.76-6.76-5.74-5.73H64V106.67l-5.73-5.74L51.5,94.17l6.76-6.76L64,81.67V64H81.67l5.73-5.74,6.77-6.76,6.76,6.76L106.67,64h17.67V81.67l5.74,5.74,6.76,6.76-6.76,6.76-5.74,5.74v17.68ZM64,137.52v-7.44H79.3L90.11,140.9l-5.26,5.26c-3.12,3.12-8.6,5.23-15,6.66C66.38,147.3,64,141.93,64,137.52ZM58.26,79.3,47.44,90.11l-5.26-5.26c-3.12-3.12-5.23-8.6-6.66-15C41,66.38,46.4,64,50.81,64h7.45Zm0,45.05H50.81c-4.41,0-9.78-2.39-15.3-5.88,1.43-6.38,3.55-11.86,6.67-15l5.26-5.26L58.26,109ZM64,50.82c0-4.41,2.39-9.78,5.88-15.3,6.38,1.43,11.86,3.54,15,6.66l5.26,5.26L79.29,58.26H64Zm60.35,0v7.44H109L98.22,47.44l5.27-5.26c3.11-3.12,8.6-5.23,15-6.66C122,41,124.34,46.41,124.34,50.82ZM130.08,109,140.9,98.23l5.26,5.26c3.12,3.12,5.23,8.6,6.66,15-5.52,3.49-10.89,5.88-15.3,5.88h-7.44Zm0-29.74V64h7.44c4.41,0,9.78,2.38,15.3,5.88-1.43,6.37-3.54,11.85-6.66,15l-5.26,5.26ZM94.17,7.66A171,171,0,0,1,115,30.47c-6.38,1.66-12,4.08-15.58,7.65l-5.26,5.27L88.9,38.12c-3.57-3.57-9.2-6-15.57-7.65A169.69,169.69,0,0,1,94.17,7.66ZM33,33a170.54,170.54,0,0,1,30.87,1.39c-3.33,5.68-5.6,11.38-5.6,16.43v7.44H50.81c-5,0-10.74,2.27-16.42,5.61A170.72,170.72,0,0,1,33,33ZM7.66,94.17A171,171,0,0,1,30.47,73.33c1.66,6.37,4.08,12,7.65,15.58l5.26,5.26-5.26,5.26c-3.57,3.57-6,9.21-7.65,15.59A170.36,170.36,0,0,1,7.66,94.17ZM33,155.34a170.58,170.58,0,0,1,1.4-30.86c5.68,3.33,11.38,5.6,16.42,5.6h7.45v7.44c0,5,2.27,10.74,5.6,16.42A171.65,171.65,0,0,1,33,155.34Zm61.18,25.34a171.35,171.35,0,0,1-20.83-22.79c6.38-1.66,12-4.1,15.56-7.67L94.17,145l5.26,5.27c3.57,3.57,9.19,6,15.56,7.67A170.69,170.69,0,0,1,94.17,180.68Zm61.17-25.34A169.66,169.66,0,0,1,124.47,154c3.33-5.68,5.61-11.38,5.61-16.43v-7.44h7.44c5,0,10.75-2.27,16.43-5.6A170.47,170.47,0,0,1,155.34,155.34ZM157.87,115c-1.66-6.38-4.08-12-7.66-15.59L145,94.17l5.26-5.26c3.57-3.57,6-9.21,7.66-15.58a170.36,170.36,0,0,1,22.81,20.84A170.36,170.36,0,0,1,157.87,115Z"/></svg>
